<svg width="207" height="58" viewBox="0 0 207 58" fill="none" xmlns="http://www.w3.org/2000/svg">
<path d="M8 8L29 18.5L52 8.13783V17.0756L29 28L13.3461 20.0849V23.1613L29 31.5L36.3869 27.9294V35.7064L29 39.5L13.3461 30.9337V33.9916L29 42L52 30.5832V38.3063L29 50L8 38.2898V8Z" fill="url(#paint0_linear_1149_2787)"/>
<path d="M178.28 38V24.9091H181.741V27.2188H181.894C182.167 26.4517 182.621 25.8466 183.258 25.4034C183.894 24.9602 184.655 24.7386 185.542 24.7386C186.439 24.7386 187.204 24.9631 187.834 25.4119C188.465 25.8551 188.885 26.4574 189.096 27.2188H189.232C189.499 26.4688 189.982 25.8693 190.681 25.4205C191.385 24.9659 192.218 24.7386 193.178 24.7386C194.4 24.7386 195.391 25.1279 196.152 25.9063C196.919 26.679 197.303 27.7756 197.303 29.196V38H193.681V29.9119C193.681 29.1847 193.488 28.6392 193.101 28.2756C192.715 27.9119 192.232 27.7301 191.652 27.7301C190.993 27.7301 190.479 27.9404 190.11 28.3608C189.741 28.7756 189.556 29.3239 189.556 30.0057V38H186.036V29.8352C186.036 29.1932 185.851 28.6818 185.482 28.3011C185.118 27.9205 184.638 27.7301 184.042 27.7301C183.638 27.7301 183.275 27.8324 182.951 28.0369C182.633 28.2358 182.38 28.5171 182.192 28.8807C182.005 29.2386 181.911 29.6591 181.911 30.1421V38H178.28Z" fill="white"/>
<path d="M175.696 28.6421L172.372 28.8466C172.316 28.5625 172.193 28.3068 172.006 28.0796C171.818 27.8466 171.571 27.6619 171.264 27.5256C170.963 27.3835 170.602 27.3125 170.182 27.3125C169.619 27.3125 169.145 27.4318 168.759 27.6705C168.372 27.9034 168.179 28.2159 168.179 28.608C168.179 28.9205 168.304 29.1847 168.554 29.4006C168.804 29.6165 169.233 29.7898 169.841 29.9205L172.21 30.3977C173.483 30.6591 174.432 31.0796 175.057 31.6591C175.682 32.2386 175.994 33 175.994 33.9432C175.994 34.8011 175.742 35.554 175.236 36.2017C174.736 36.8494 174.048 37.3551 173.173 37.7188C172.304 38.0767 171.301 38.2557 170.165 38.2557C168.432 38.2557 167.051 37.8949 166.023 37.1733C165 36.446 164.401 35.4574 164.225 34.2074L167.796 34.0199C167.904 34.5483 168.165 34.9517 168.58 35.2301C168.995 35.5029 169.526 35.6392 170.173 35.6392C170.81 35.6392 171.321 35.5171 171.708 35.2727C172.1 35.0227 172.298 34.7017 172.304 34.3097C172.298 33.9801 172.159 33.7102 171.887 33.5C171.614 33.2841 171.193 33.1193 170.625 33.0057L168.358 32.554C167.08 32.2983 166.128 31.8551 165.503 31.2244C164.884 30.5938 164.574 29.7898 164.574 28.8125C164.574 27.9716 164.801 27.2472 165.256 26.6392C165.716 26.0313 166.361 25.5625 167.191 25.233C168.026 24.9034 169.003 24.7386 170.122 24.7386C171.776 24.7386 173.077 25.0881 174.026 25.7869C174.98 26.4858 175.537 27.4375 175.696 28.6421Z" fill="white"/>
<path d="M154.615 38.2472C153.78 38.2472 153.036 38.1023 152.382 37.8125C151.729 37.5171 151.212 37.0824 150.831 36.5085C150.456 35.929 150.269 35.2074 150.269 34.3438C150.269 33.6165 150.402 33.0057 150.669 32.5114C150.936 32.0171 151.3 31.6193 151.76 31.3182C152.22 31.0171 152.743 30.7898 153.328 30.6364C153.919 30.483 154.538 30.375 155.186 30.3125C155.948 30.233 156.561 30.1591 157.027 30.0909C157.493 30.0171 157.831 29.9091 158.041 29.7671C158.252 29.625 158.357 29.4148 158.357 29.1364V29.0852C158.357 28.5455 158.186 28.1279 157.845 27.8324C157.51 27.5369 157.033 27.3892 156.413 27.3892C155.76 27.3892 155.24 27.5341 154.854 27.8239C154.467 28.108 154.212 28.4659 154.087 28.8977L150.729 28.625C150.899 27.8296 151.234 27.1421 151.734 26.5625C152.234 25.9773 152.879 25.5284 153.669 25.2159C154.465 24.8977 155.385 24.7386 156.43 24.7386C157.158 24.7386 157.854 24.8239 158.519 24.9943C159.189 25.1648 159.783 25.429 160.3 25.7869C160.823 26.1449 161.234 26.6051 161.536 27.1676C161.837 27.7244 161.987 28.3921 161.987 29.1705V38H158.544V36.1847H158.442C158.232 36.5938 157.95 36.9546 157.598 37.2671C157.246 37.5739 156.823 37.8154 156.328 37.9915C155.834 38.1619 155.263 38.2472 154.615 38.2472ZM155.655 35.7415C156.189 35.7415 156.661 35.6364 157.07 35.4261C157.479 35.2102 157.8 34.9205 158.033 34.5568C158.266 34.1932 158.382 33.7813 158.382 33.321V31.9318C158.269 32.0057 158.112 32.0739 157.913 32.1364C157.72 32.1932 157.502 32.2472 157.257 32.2983C157.013 32.3438 156.769 32.3864 156.524 32.4261C156.28 32.4602 156.058 32.4915 155.859 32.5199C155.433 32.5824 155.061 32.6818 154.743 32.8182C154.425 32.9546 154.178 33.1392 154.002 33.3722C153.825 33.5994 153.737 33.8835 153.737 34.2244C153.737 34.7188 153.916 35.0966 154.274 35.358C154.638 35.6136 155.098 35.7415 155.655 35.7415Z" fill="white"/>
<path d="M144.343 38V24.9091H147.974V38H144.343ZM146.167 23.2216C145.627 23.2216 145.164 23.0427 144.778 22.6847C144.397 22.3211 144.207 21.8864 144.207 21.3807C144.207 20.8807 144.397 20.4517 144.778 20.0938C145.164 19.7302 145.627 19.5483 146.167 19.5483C146.707 19.5483 147.167 19.7302 147.548 20.0938C147.934 20.4517 148.127 20.8807 148.127 21.3807C148.127 21.8864 147.934 22.3211 147.548 22.6847C147.167 23.0427 146.707 23.2216 146.167 23.2216Z" fill="white"/>
<path d="M141.759 28.6421L138.435 28.8466C138.378 28.5625 138.256 28.3068 138.068 28.0796C137.881 27.8466 137.634 27.6619 137.327 27.5256C137.026 27.3835 136.665 27.3125 136.244 27.3125C135.682 27.3125 135.208 27.4318 134.821 27.6705C134.435 27.9034 134.242 28.2159 134.242 28.608C134.242 28.9205 134.367 29.1847 134.617 29.4006C134.867 29.6165 135.296 29.7898 135.904 29.9205L138.273 30.3977C139.546 30.6591 140.494 31.0796 141.119 31.6591C141.744 32.2386 142.057 33 142.057 33.9432C142.057 34.8011 141.804 35.554 141.298 36.2017C140.798 36.8494 140.111 37.3551 139.236 37.7188C138.367 38.0767 137.364 38.2557 136.227 38.2557C134.495 38.2557 133.114 37.8949 132.085 37.1733C131.063 36.446 130.463 35.4574 130.287 34.2074L133.858 34.0199C133.966 34.5483 134.227 34.9517 134.642 35.2301C135.057 35.5029 135.588 35.6392 136.236 35.6392C136.872 35.6392 137.384 35.5171 137.77 35.2727C138.162 35.0227 138.361 34.7017 138.367 34.3097C138.361 33.9801 138.222 33.7102 137.949 33.5C137.676 33.2841 137.256 33.1193 136.688 33.0057L134.421 32.554C133.142 32.2983 132.191 31.8551 131.566 31.2244C130.946 30.5938 130.637 29.7898 130.637 28.8125C130.637 27.9716 130.864 27.2472 131.318 26.6392C131.779 26.0313 132.423 25.5625 133.253 25.233C134.088 24.9034 135.066 24.7386 136.185 24.7386C137.838 24.7386 139.139 25.0881 140.088 25.7869C141.043 26.4858 141.6 27.4375 141.759 28.6421Z" fill="white"/>
<path d="M124.331 32.4262V24.9092H127.962V38.0001H124.476V35.6222H124.34C124.044 36.3893 123.553 37.0058 122.866 37.4717C122.184 37.9376 121.351 38.1705 120.368 38.1705C119.493 38.1705 118.723 37.9717 118.059 37.574C117.394 37.1762 116.874 36.6109 116.499 35.8779C116.13 35.145 115.942 34.2671 115.937 33.2444V24.9092H119.567V32.5967C119.573 33.3694 119.78 33.9802 120.189 34.4291C120.598 34.8779 121.147 35.1024 121.834 35.1024C122.272 35.1024 122.681 35.0029 123.062 34.8041C123.442 34.5995 123.749 34.2984 123.982 33.9007C124.221 33.5029 124.337 33.0115 124.331 32.4262Z" fill="white"/>
<path d="M104.591 30.4319V38.0001H100.96V20.5455H104.488V27.2188H104.642C104.937 26.4461 105.415 25.841 106.074 25.4035C106.733 24.9603 107.559 24.7387 108.554 24.7387C109.463 24.7387 110.255 24.9376 110.932 25.3353C111.613 25.7274 112.142 26.2927 112.517 27.0313C112.897 27.7643 113.085 28.6421 113.079 29.6649V38.0001H109.449V30.3126C109.454 29.5058 109.25 28.8779 108.835 28.4291C108.426 27.9802 107.852 27.7558 107.113 27.7558C106.619 27.7558 106.182 27.8609 105.801 28.0711C105.426 28.2813 105.13 28.5881 104.915 28.9916C104.704 29.3893 104.596 29.8694 104.591 30.4319Z" fill="white"/>
<path d="M98.3142 24.9092V27.6365H90.4307V24.9092H98.3142ZM92.2204 21.7728H95.8511V33.9774C95.8511 34.3126 95.9023 34.574 96.0045 34.7615C96.1068 34.9433 96.2488 35.0711 96.4307 35.145C96.6182 35.2189 96.8341 35.2558 97.0784 35.2558C97.2488 35.2558 97.4193 35.2416 97.5898 35.2132C97.7602 35.1791 97.8909 35.1535 97.9818 35.1365L98.5528 37.8382C98.371 37.895 98.1153 37.9603 97.7858 38.0342C97.4562 38.1137 97.0557 38.162 96.5841 38.1791C95.7091 38.2132 94.942 38.0967 94.2829 37.8296C93.6295 37.5626 93.121 37.1478 92.7574 36.5853C92.3937 36.0228 92.2148 35.3126 92.2204 34.4546V21.7728Z" fill="white"/>
<path d="M80.0516 30.4318V38H76.4209V24.9091H79.8811V27.2188H80.0345C80.3243 26.4574 80.8101 25.8551 81.4919 25.4119C82.1737 24.9631 83.0004 24.7386 83.972 24.7386C84.8811 24.7386 85.6737 24.9375 86.3499 25.3352C87.026 25.733 87.5516 26.3011 87.9266 27.0398C88.3016 27.7727 88.4891 28.6477 88.4891 29.6648V38H84.8584V30.3125C84.8641 29.5114 84.6595 28.8864 84.2448 28.4375C83.83 27.983 83.259 27.7557 82.5317 27.7557C82.0431 27.7557 81.6112 27.8608 81.2362 28.071C80.8669 28.2813 80.5771 28.5881 80.3669 28.9915C80.1624 29.3892 80.0573 29.8693 80.0516 30.4318Z" fill="white"/>
<path d="M61.7939 38.0001V20.5455H73.5553V23.5881H65.4843V27.7472H72.9502V30.7899H65.4843V34.9575H73.5894V38.0001H61.7939Z" fill="white"/>
<defs>
<linearGradient id="paint0_linear_1149_2787" x1="8" y1="8" x2="52" y2="50" gradientUnits="userSpaceOnUse">
<stop stop-color="#FF5F6D"/>
<stop offset="1" stop-color="#FFC371"/>
</linearGradient>
</defs>
</svg>
